<?xml version="1.0"?>
<!DOCTYPE svg PUBLIC "-//W3C//DTD SVG 1.1//EN" "http://www.w3.org/Graphics/SVG/1.1/DTD/svg11.dtd">
<svg width="191.01mm" height="65.99mm" viewBox="0.000000 -65.990000 191.010000 65.990000" xmlns="http://www.w3.org/2000/svg" version="1.1">
<g id="Sketch" transform="scale(1,-1)">
<path id="Sketch_w0000"  d="M 0.0 0.0 L 191.01 0.0 L 191.01 65.99 L 0.0 65.99 L 0.0 0.0 " stroke="#000000" stroke-width="0.35 px" style="stroke-width:0.35;stroke-miterlimit:4;stroke-dasharray:none;stroke-linecap:square;fill:none;fill-opacity:1;fill-rule: evenodd"/>
<circle cx="70.0" cy="30.0" r="11.0" stroke="#000000" stroke-width="0.35 px" style="stroke-width:0.35;stroke-miterlimit:4;stroke-dasharray:none;stroke-linecap:square;fill:none"/>
<circle cx="60.1" cy="39.9" r="1.35" stroke="#000000" stroke-width="0.35 px" style="stroke-width:0.35;stroke-miterlimit:4;stroke-dasharray:none;stroke-linecap:square;fill:none"/>
<circle cx="79.9" cy="20.1" r="1.35" stroke="#000000" stroke-width="0.35 px" style="stroke-width:0.35;stroke-miterlimit:4;stroke-dasharray:none;stroke-linecap:square;fill:none"/>
<path id="Sketch_w0004"  d="M 93.89000000002541 46.28133418858841 A 6.415 6.415 0 1 1 99.45 46.2813L 93.89000000002541 46.28133418858841 " stroke="#000000" stroke-width="0.35 px" style="stroke-width:0.35;stroke-miterlimit:4;stroke-dasharray:none;stroke-linecap:square;fill:none;fill-opacity:1;fill-rule: evenodd"/>
<path id="Sketch_w0005"  d="M 99.44999999998622 18.718665811384007 A 6.415 6.415 0 1 1 93.89 18.7187L 99.44999999998622 18.718665811384007 " stroke="#000000" stroke-width="0.35 px" style="stroke-width:0.35;stroke-miterlimit:4;stroke-dasharray:none;stroke-linecap:square;fill:none;fill-opacity:1;fill-rule: evenodd"/>
<path id="Sketch_w0006"  d="M 116.75 46.281334188576196 A 6.415 6.415 0 1 1 122.31 46.2813L 116.75 46.281334188576196 " stroke="#000000" stroke-width="0.35 px" style="stroke-width:0.35;stroke-miterlimit:4;stroke-dasharray:none;stroke-linecap:square;fill:none;fill-opacity:1;fill-rule: evenodd"/>
<path id="Sketch_w0007"  d="M 122.30999999999999 18.718665811423797 A 6.415 6.415 0 1 1 116.75 18.7187L 122.30999999999999 18.718665811423797 " stroke="#000000" stroke-width="0.35 px" style="stroke-width:0.35;stroke-miterlimit:4;stroke-dasharray:none;stroke-linecap:square;fill:none;fill-opacity:1;fill-rule: evenodd"/>
<title>b'Sketch'</title>
</g>
</svg>